<svg width="16" height="11" viewBox="0 0 16 11" fill="none" xmlns="http://www.w3.org/2000/svg">
<path d="M14.3 0H1.1C0.808262 0 0.528473 0.115892 0.322183 0.322183C0.115892 0.528473 0 0.808262 0 1.1V9.9C0 10.1917 0.115892 10.4715 0.322183 10.6778C0.528473 10.8841 0.808262 11 1.1 11H14.3C14.5917 11 14.8715 10.8841 15.0778 10.6778C15.2841 10.4715 15.4 10.1917 15.4 9.9V1.1C15.4 0.808262 15.2841 0.528473 15.0778 0.322183C14.8715 0.115892 14.5917 0 14.3 0V0ZM13.09 1.1L7.7 4.829L2.31 1.1H13.09ZM1.1 9.9V1.6005L7.3865 5.951C7.47857 6.01487 7.58795 6.0491 7.7 6.0491C7.81205 6.0491 7.92143 6.01487 8.0135 5.951L14.3 1.6005V9.9H1.1Z" fill="#C6C6C6"/>
</svg>
