<svg width="112" height="37" viewBox="0 0 112 37" fill="none" xmlns="http://www.w3.org/2000/svg">
<path d="M104.36 28.62C104.36 30.15 105.55 31.34 107.08 31.34C108.61 31.34 109.8 30.15 109.8 28.62C109.8 27.09 108.61 25.9 107.08 25.9C105.55 25.9 104.36 27.09 104.36 28.62Z" fill="#17B0A3"/>
<path d="M3.06 31H8.16V22.33H17.85V17.57H8.16V11.96H20.57V7.2H3.06V31ZM20.808 31H36.958V26.24H25.908V7.2H20.808V31ZM36.6967 31H54.7167V26.24H41.7967V21.14H51.6567V16.55H41.7967V11.96H54.3767V7.2H36.6967V31ZM55.308 31H73.328V26.24H60.408V21.14H70.268V16.55H60.408V11.96H72.988V7.2H55.308V31ZM78.3394 31H83.4394V11.96H90.2394V7.2H71.5394V11.96H78.3394V31ZM94.3941 31H99.4941V11.96H106.294V7.2H87.5941V11.96H94.3941V31Z" fill="black"/>
</svg>
