<svg width="11" height="16" viewBox="0 0 11 16" fill="none" xmlns="http://www.w3.org/2000/svg">
<path fill-rule="evenodd" clip-rule="evenodd" d="M9 7.5H2C1.73478 7.5 1.48043 7.60536 1.29289 7.79289C1.10536 7.98043 1 8.23478 1 8.5V13.5C1 13.7652 1.10536 14.0196 1.29289 14.2071C1.48043 14.3946 1.73478 14.5 2 14.5H9C9.26522 14.5 9.51957 14.3946 9.70711 14.2071C9.89464 14.0196 10 13.7652 10 13.5V8.5C10 8.23478 9.89464 7.98043 9.70711 7.79289C9.51957 7.60536 9.26522 7.5 9 7.5ZM2 6.5C1.46957 6.5 0.960859 6.71071 0.585786 7.08579C0.210714 7.46086 0 7.96957 0 8.5V13.5C0 14.0304 0.210714 14.5391 0.585786 14.9142C0.960859 15.2893 1.46957 15.5 2 15.5H9C9.53043 15.5 10.0391 15.2893 10.4142 14.9142C10.7893 14.5391 11 14.0304 11 13.5V8.5C11 7.96957 10.7893 7.46086 10.4142 7.08579C10.0391 6.71071 9.53043 6.5 9 6.5H2ZM2 3.5C2 2.57174 2.36875 1.6815 3.02513 1.02513C3.6815 0.368749 4.57174 0 5.5 0C6.42826 0 7.3185 0.368749 7.97487 1.02513C8.63125 1.6815 9 2.57174 9 3.5V6.5H8V3.5C8 2.83696 7.73661 2.20107 7.26777 1.73223C6.79893 1.26339 6.16304 1 5.5 1C4.83696 1 4.20107 1.26339 3.73223 1.73223C3.26339 2.20107 3 2.83696 3 3.5V6.5H2V3.5Z" fill="#C6C6C6"/>
</svg>
